<svg width="21" height="21" viewBox="0 0 21 21" fill="none" xmlns="http://www.w3.org/2000/svg">
<path d="M1.25 14.201C0.532561 14.6152 0.286748 15.5326 0.700962 16.25C1.11518 16.9674 2.03256 17.2133 2.75 16.799L1.25 14.201ZM20.7694 5.88823C20.9838 5.08803 20.5089 4.26552 19.7087 4.05111L6.66874 0.557054C5.86854 0.342641 5.04603 0.817515 4.83162 1.61771C4.61721 2.41791 5.09208 3.24042 5.89228 3.45483L17.4834 6.56066L14.3776 18.1518C14.1631 18.952 14.638 19.7745 15.4382 19.9889C16.2384 20.2033 17.0609 19.7284 17.2753 18.9282L20.7694 5.88823ZM2.75 16.799L20.0705 6.79904L18.5705 4.20096L1.25 14.201L2.75 16.799Z" fill="#B9FF66"/>
</svg>
